<svg width="20" height="20" viewBox="0 0 20 20" fill="none" xmlns="http://www.w3.org/2000/svg">
<path d="M9.24016 14.58L9.24016 7.91997C9.24016 7.49997 9.58016 7.15997 10.0002 7.15997C10.4202 7.15997 10.7402 7.49997 10.7402 7.91997L10.7402 14.58L13.2602 12.36C13.5602 12.08 14.0402 12.1 14.3002 12.42C14.5802 12.72 14.5602 13.2 14.2402 13.48L10.5002 16.8C10.2202 17.06 9.80016 17.06 9.50015 16.82C9.50015 16.8 9.50015 16.8 9.50015 16.8L5.76016 13.48C5.44015 13.2 5.42015 12.72 5.68016 12.42C5.96015 12.1 6.44016 12.08 6.74015 12.36L9.24016 14.58ZM4.84016 5.91997C4.84016 6.33997 4.50016 6.65997 4.08016 6.65997C3.66016 6.65997 3.34015 6.33997 3.34015 5.91997L3.34015 4.07997C3.34015 3.67997 3.66016 3.33997 4.08016 3.33997L15.9202 3.33997C16.3202 3.33997 16.6602 3.67997 16.6602 4.07997L16.6602 5.91997C16.6602 6.33997 16.3202 6.65997 15.9202 6.65997C15.5002 6.65997 15.1602 6.33997 15.1602 5.91997L15.1602 4.83997L4.84016 4.83997L4.84016 5.91997Z" fill="#38AEE0"/>
</svg>
