<svg width="48" height="48" viewBox="0 0 48 48" fill="none" xmlns="http://www.w3.org/2000/svg">
<path d="M36 0L44 8V46C44 47.1046 43.1046 48 42 48H6C4.89543 48 4 47.1046 4 46V2C4 0.895431 4.89543 1.61064e-08 6 0H36Z" fill="#E4E7EC"/>
<path d="M44 8H36V0L44 8Z" fill="#98A2B3"/>
<rect x="2" y="20" width="44" height="20" rx="2" fill="#CC400C"/>
<path d="M9.32764 35.8182V24.1818H13.6913C14.5852 24.1818 15.3352 24.3485 15.9413 24.6818C16.5511 25.0152 17.0113 25.4735 17.322 26.0568C17.6363 26.6364 17.7935 27.2955 17.7935 28.0341C17.7935 28.7803 17.6363 29.4432 17.322 30.0227C17.0076 30.6023 16.5435 31.0587 15.9299 31.3921C15.3163 31.7216 14.5606 31.8864 13.6629 31.8864H10.7708V30.1534H13.3788C13.9015 30.1534 14.3295 30.0625 14.6629 29.8807C14.9962 29.6989 15.2424 29.4489 15.4015 29.1307C15.5644 28.8125 15.6458 28.447 15.6458 28.0341C15.6458 27.6212 15.5644 27.2576 15.4015 26.9432C15.2424 26.6288 14.9943 26.3845 14.6572 26.2102C14.3238 26.0322 13.8939 25.9432 13.3674 25.9432H11.4356V35.8182H9.32764Z" fill="white"/>
<path d="M23.5677 35.8182H19.6245V24.1818H23.6472C24.8025 24.1818 25.795 24.4148 26.6245 24.8807C27.4578 25.3428 28.098 26.0076 28.545 26.875C28.9919 27.7424 29.2154 28.7803 29.2154 29.9886C29.2154 31.2008 28.99 32.2424 28.5393 33.1136C28.0923 33.9849 27.4465 34.6534 26.6018 35.1193C25.7609 35.5852 24.7495 35.8182 23.5677 35.8182ZM21.7325 33.9943H23.4654C24.276 33.9943 24.9522 33.8466 25.4938 33.5511C26.0355 33.2519 26.4427 32.8068 26.7154 32.2159C26.9881 31.6212 27.1245 30.8788 27.1245 29.9886C27.1245 29.0985 26.9881 28.3599 26.7154 27.7727C26.4427 27.1818 26.0393 26.7405 25.5052 26.4489C24.9749 26.1534 24.3158 26.0057 23.5279 26.0057H21.7325V33.9943Z" fill="white"/>
<path d="M31.2183 35.8182V24.1818H38.6728V25.9489H33.3262V29.108H38.1614V30.875H33.3262V35.8182H31.2183Z" fill="white"/>
</svg>
