<svg width="14" height="14" viewBox="0 0 14 14" fill="none" xmlns="http://www.w3.org/2000/svg">
<path d="M6.11426 0.714996C8.9756 0.715208 11.2949 3.03524 11.2949 5.89664C11.2948 7.01592 10.9407 8.05098 10.3379 8.89761L10.0918 9.24234L10.3916 9.54117L13.375 12.5255C13.5398 12.6903 13.545 12.9756 13.3691 13.1515C13.1898 13.3308 12.9121 13.3263 12.7432 13.1574L9.75879 10.174L9.45996 9.87418L9.11523 10.1203C8.2686 10.723 7.23354 11.0772 6.11426 11.0773C3.25286 11.0773 0.932828 8.75798 0.932617 5.89664C0.932617 3.03511 3.25273 0.714996 6.11426 0.714996ZM6.11426 1.13492C3.48486 1.13492 1.35254 3.26724 1.35254 5.89664C1.35275 8.52585 3.485 10.6574 6.11426 10.6574C8.74334 10.6572 10.8748 8.52572 10.875 5.89664C10.875 3.26737 8.74347 1.13513 6.11426 1.13492Z" fill="#1C2E45" fill-opacity="0.6" stroke="#111827"/>
</svg>
