<svg width="28" height="28" viewBox="0 0 28 28" fill="none" xmlns="http://www.w3.org/2000/svg">
<path fill-rule="evenodd" clip-rule="evenodd" d="M8.16667 3.49999C6.878 3.49999 5.83333 4.54466 5.83333 5.83332V22.1667C5.83333 23.4553 6.878 24.5 8.16667 24.5H10.5C11.1443 24.5 11.6667 25.0223 11.6667 25.6667C11.6667 26.311 11.1443 26.8333 10.5 26.8333H8.16667C5.58934 26.8333 3.5 24.744 3.5 22.1667V5.83332C3.5 3.25599 5.58934 1.16666 8.16667 1.16666H15.8607C17.2457 1.16666 18.5591 1.78183 19.4457 2.8458L23.4184 7.61297C24.1173 8.45164 24.5 9.50879 24.5 10.6005V22.1667C24.5 24.744 22.4107 26.8333 19.8333 26.8333H17.5C16.8557 26.8333 16.3333 26.311 16.3333 25.6667C16.3333 25.0223 16.8557 24.5 17.5 24.5H19.8333C21.122 24.5 22.1667 23.4553 22.1667 22.1667V11.6667H19.8333C17.256 11.6667 15.1667 9.57732 15.1667 6.99999V3.49999H8.16667ZM21.6258 9.10674C21.6862 9.17916 21.7418 9.25485 21.7926 9.33332H19.8333C18.5447 9.33332 17.5 8.28865 17.5 6.99999V4.17285C17.5535 4.22566 17.6046 4.28126 17.6532 4.33956L21.6258 9.10674Z" fill="#D42620"/>
<path d="M16.5251 23.8164L14.7751 25.372C14.3331 25.7649 13.6669 25.7649 13.2249 25.372L11.4749 23.8164C10.9933 23.3883 10.95 22.6509 11.378 22.1693C11.7525 21.748 12.3637 21.6621 12.8333 21.9338V16.3333C12.8333 15.689 13.3557 15.1667 14 15.1667C14.6443 15.1667 15.1667 15.689 15.1667 16.3333V21.9338C15.6362 21.6621 16.2475 21.748 16.622 22.1693C17.05 22.6509 17.0067 23.3883 16.5251 23.8164Z" fill="#D42620"/>
</svg>
