<svg width="24" height="24" viewBox="0 0 24 24" fill="none" xmlns="http://www.w3.org/2000/svg">
<mask id="mask0_2503_5510" style="mask-type:luminance" maskUnits="userSpaceOnUse" x="0" y="0" width="24" height="24">
<path d="M0 0H24V24H0V0Z" fill="white"/>
</mask>
<g mask="url(#mask0_2503_5510)">
<path d="M2.23788 9.03475C2.23788 7.92087 3.47552 5.81689 5.08445 5.19807C6.69338 4.57925 9.16865 4.57925 12.5103 4.57925C16.0994 4.57925 19.6886 5.19807 19.6886 5.19807L16.842 2.35151L18.0796 0L24.7629 6.807L17.9559 13.614L16.7182 11.2625L19.5648 8.41593C19.5648 8.41593 15.9756 7.79711 12.2627 7.79711C9.04488 7.79711 6.56961 7.79711 4.96068 8.41593C3.35176 9.03475 2.23788 12.9952 2.23788 12.9952V9.03475Z" fill="#5856D6"/>
<path d="M22.5346 15.9652C22.5346 17.0791 21.297 19.1831 19.688 19.8019C18.0791 20.4207 15.6038 20.4207 12.2622 20.4207C8.67307 20.4207 5.08392 19.8019 5.08392 19.8019L7.93049 22.6485L6.69285 25L0.00961304 18.193L6.81661 11.386L8.05425 13.7375L5.20769 16.5841C5.20769 16.5841 8.79683 17.2029 12.5097 17.2029C15.7276 17.2029 18.2029 17.2029 19.8118 16.5841C21.4207 15.9652 22.5346 12.0048 22.5346 12.0048V15.9652Z" fill="#5856D6"/>
</g>
</svg>
