<svg width="20" height="20" viewBox="0 0 20 20" fill="none" xmlns="http://www.w3.org/2000/svg">
<path d="M10.7598 5.41999V12.08C10.7598 12.5 10.4198 12.84 9.99984 12.84C9.57984 12.84 9.25984 12.5 9.25984 12.08V5.41999L6.73984 7.63999C6.43984 7.91999 5.95984 7.89999 5.69984 7.57999C5.41984 7.27999 5.43984 6.79999 5.75984 6.51999L9.49984 3.19999C9.77984 2.93999 10.1998 2.93999 10.4998 3.17999C10.4998 3.19999 10.4998 3.19999 10.4998 3.19999L14.2398 6.51999C14.5598 6.79999 14.5798 7.27999 14.3198 7.57999C14.0398 7.89999 13.5598 7.91999 13.2598 7.63999L10.7598 5.41999ZM15.1598 14.08C15.1598 13.66 15.4998 13.34 15.9198 13.34C16.3398 13.34 16.6598 13.66 16.6598 14.08V15.92C16.6598 16.32 16.3398 16.66 15.9198 16.66H4.07984C3.67984 16.66 3.33984 16.32 3.33984 15.92V14.08C3.33984 13.66 3.67984 13.34 4.07984 13.34C4.49984 13.34 4.83984 13.66 4.83984 14.08V15.16H15.1598V14.08Z" fill="#38AEE0"/>
</svg>
